<?xml version="1.0" encoding="UTF-8"?>
<svg width="158" height="158" viewBox="0 0 158 158" fill="none" xmlns="http://www.w3.org/2000/svg">
<style>
#circle {
    animation: 4000ms ease 0s infinite normal none running eoUyJr;
    transform-origin: center center;
}
@keyframes eoUyJr {
  from {
    transform: rotate(0deg);
  }

  to {
    transform: rotate(360deg);
  }
}
</style>
<circle cx="79" cy="79" r="79" fill="#f4f6f6"/><mask id="mask0" mask-type="alpha" maskUnits="userSpaceOnUse" x="40" y="61" width="79" height="36"><rect x="40" y="61" width="78.75" height="36" fill="#C4C4C4"/></mask><g mask="url(#mask0)"><mask id="mask1" mask-type="alpha" maskUnits="userSpaceOnUse" x="80" y="72" width="26" height="25"><path fill-rule="evenodd" clip-rule="evenodd" d="M80.3438 72.3143H105.128V96.9998H80.3438V72.3143Z" fill="white"/></mask><g mask="url(#mask1)"><path fill-rule="evenodd" clip-rule="evenodd" d="M103.079 85.2908C102.752 90.6759 98.2532 94.9411 92.7593 94.9411C87.0428 94.9411 82.4161 90.3377 82.4161 84.6562C82.4161 80.093 85.4012 76.224 89.5383 74.8782C89.6138 74.3774 89.6528 73.8651 89.6528 73.3427C89.6528 73.1283 89.645 72.9178 89.6349 72.708C84.2897 74.0856 80.344 78.9127 80.344 84.6562C80.344 91.4715 85.8994 96.9998 92.7593 96.9998C99.2776 96.9998 104.626 91.997 105.129 85.6391C104.427 85.5787 103.742 85.4618 103.079 85.2908ZM92.7598 74.3707C97.9431 74.3707 102.241 78.1684 102.988 83.1224C103.67 83.3422 104.383 83.4954 105.121 83.5736C104.568 77.2637 99.243 72.3143 92.7598 72.3143C92.3963 72.3143 92.0383 72.3305 91.6864 72.36C91.709 72.6842 91.723 73.0116 91.723 73.3429C91.723 73.7082 91.7043 74.0704 91.6763 74.4264C92.0313 74.3892 92.3916 74.3707 92.7598 74.3707Z" fill="#181818"/></g><mask id="mask2" mask-type="alpha" maskUnits="userSpaceOnUse" x="53" y="72" width="26" height="25"><path fill-rule="evenodd" clip-rule="evenodd" d="M53.4475 72.3147H78.2346V97H53.4475V72.3147Z" fill="white"/></mask><g mask="url(#mask2)"><path fill-rule="evenodd" clip-rule="evenodd" d="M78.2346 85.6388C77.7318 91.9975 72.3858 97.0003 65.8628 97.0003C59.0044 97.0003 53.4475 91.472 53.4475 84.6559C53.4475 78.9132 57.394 74.0862 62.7399 72.7085C62.7493 72.9175 62.7563 73.1288 62.7563 73.3424C62.7563 73.8656 62.7166 74.3779 62.6419 74.8787C58.5055 76.2246 55.5211 80.0935 55.5211 84.6559C55.5211 90.3374 60.1463 94.9416 65.8628 94.9416C71.3591 94.9416 75.8574 90.6764 76.1851 85.2913C76.8459 85.4616 77.534 85.5792 78.2346 85.6388ZM64.7798 74.4269C64.8094 74.0709 64.8281 73.7087 64.8281 73.3426C64.8281 73.0121 64.8141 72.6848 64.7915 72.3605C65.1433 72.3311 65.5014 72.3148 65.8633 72.3148C72.3473 72.3148 77.6785 77.2642 78.2312 83.5741C77.4886 83.4952 76.7733 83.3427 76.093 83.1229C75.3465 78.1689 71.0474 74.3704 65.8633 74.3704C65.4967 74.3704 65.1348 74.3898 64.7798 74.4269Z" fill="#181818"/></g><mask id="mask3" mask-type="alpha" maskUnits="userSpaceOnUse" x="93" y="61" width="26" height="25"><path fill-rule="evenodd" clip-rule="evenodd" d="M93.8257 61H118.617V85.6855H93.8257V61Z" fill="white"/></mask><g mask="url(#mask3)"><path fill-rule="evenodd" clip-rule="evenodd" d="M118.617 73.3426C118.617 80.1595 113.061 85.6855 106.203 85.6855C99.7119 85.6855 94.3885 80.7369 93.8358 74.4262C94.5784 74.5028 95.2891 74.6576 95.9733 74.8781C96.7174 79.8306 101.013 83.6291 106.203 83.6291C111.915 83.6291 116.546 79.0226 116.546 73.3426C116.546 67.6634 111.915 63.0569 106.203 63.0569C100.702 63.0569 96.2068 67.3229 95.8791 72.7088C95.2136 72.5385 94.5317 72.4209 93.8257 72.3597C94.334 66.0018 99.6792 60.9998 106.203 60.9998C113.061 60.9998 118.617 66.5265 118.617 73.3426Z" fill="#181818"/></g><mask id="mask4" mask-type="alpha" maskUnits="userSpaceOnUse" x="66" y="61" width="26" height="25"><path fill-rule="evenodd" clip-rule="evenodd" d="M66.9333 61H91.722V85.6855H66.9333V61Z" fill="white"/></mask><g mask="url(#mask4)"><path fill-rule="evenodd" clip-rule="evenodd" d="M79.3062 83.6293C74.1213 83.6293 69.8223 79.8308 69.0766 74.8784C68.3939 74.6578 67.6825 74.503 66.9399 74.4264C67.4933 80.7371 72.8167 85.6857 79.3062 85.6857C79.6705 85.6857 80.0293 85.671 80.3827 85.6393C80.3586 85.3173 80.3438 84.9884 80.3438 84.6564C80.3438 84.2918 80.3625 83.9296 80.3928 83.5744C80.0355 83.6108 79.6736 83.6293 79.3062 83.6293ZM79.3059 60.9998C72.783 60.9998 67.4385 66.0018 66.9333 72.3597C67.6362 72.4209 68.3165 72.5385 68.9844 72.7088C69.3098 67.3229 73.8081 63.0569 79.3059 63.0569C85.0224 63.0569 89.6522 67.6634 89.6522 73.3426C89.6522 77.905 86.6656 81.7755 82.5276 83.123C82.4537 83.6214 82.4155 84.1345 82.4155 84.6561C82.4155 84.8705 82.4171 85.0826 82.4319 85.2908C87.7763 83.9139 91.722 79.0868 91.722 73.3426C91.722 66.5265 86.1658 60.9998 79.3059 60.9998Z" fill="#181818"/></g><mask id="mask5" mask-type="alpha" maskUnits="userSpaceOnUse" x="40" y="61" width="25" height="25"><path fill-rule="evenodd" clip-rule="evenodd" d="M40 61H64.8263V85.6855H40V61Z" fill="white"/></mask><g mask="url(#mask5)"><path fill-rule="evenodd" clip-rule="evenodd" d="M64.8263 73.3426C64.8263 66.5265 59.2701 60.9998 52.411 60.9998C45.558 60.9998 39.9995 66.5265 39.9995 73.3426C39.9995 80.1595 45.558 85.6855 52.411 85.6855C52.7745 85.6855 53.1302 85.6708 53.4851 85.6398C53.461 85.3171 53.4462 84.9882 53.4462 84.6561C53.4462 84.2916 53.4657 83.9294 53.4945 83.5742C53.138 83.6105 52.7776 83.6291 52.411 83.6291C46.6983 83.6291 42.0669 79.0226 42.0669 73.3426C42.0669 67.6634 46.6983 63.0569 52.411 63.0569C58.1267 63.0569 62.755 67.6634 62.755 73.3426C62.755 77.9058 59.7683 81.7755 55.6312 83.123C55.558 83.6214 55.5198 84.1345 55.5198 84.6561C55.5198 84.8705 55.5214 85.0826 55.5354 85.2908C60.8806 83.9139 64.8263 79.0868 64.8263 73.3426Z" fill="#181818"/></g></g><circle cx="79" cy="79" r="63.5" stroke="url(#paint0_radial)" stroke-width="3" id="circle"/><defs><radialGradient id="paint0_radial" cx="0" cy="0" r="1" gradientUnits="userSpaceOnUse" gradientTransform="translate(53 42.1667) rotate(43.3819) scale(271.284 230.543)"><stop stop-color="#F2F2F2"/><stop offset="0.0885417" stop-color="#0078D0"/><stop offset="0.213542" stop-color="#F0282D"/><stop offset="0.297369" stop-color="#FFB114"/><stop offset="0.373197" stop-color="#00A651"/><stop offset="0.416239"/><stop offset="0.458333" stop-color="#F2F2F2"/><stop offset="1" stop-color="#F2F2F2"/></radialGradient></defs></svg>